<?xml version="1.0" standalone="no"?>
<!DOCTYPE svg PUBLIC "-//W3C//DTD SVG 20010904//EN"
 "http://www.w3.org/TR/2001/REC-SVG-20010904/DTD/svg10.dtd">
<svg version="1.0" xmlns="http://www.w3.org/2000/svg"
 width="500.000000pt" height="500.000000pt" viewBox="0 0 500.000000 500.000000"
 preserveAspectRatio="xMidYMid meet">
<metadata>
Created by potrace 1.16, written by Peter Selinger 2001-2019
</metadata>
<g transform="translate(0.000000,500.000000) scale(0.100000,-0.100000)"
fill="#000000" stroke="none">
<path d="M350 4981 c-81 -26 -137 -62 -206 -133 -73 -76 -100 -118 -125 -201
-18 -60 -19 -131 -19 -2147 0 -2016 1 -2087 19 -2147 25 -83 52 -125 125 -201
71 -73 125 -108 210 -133 58 -18 147 -19 2146 -19 1999 0 2088 1 2146 19 85
25 139 60 210 133 73 76 100 118 125 201 18 60 19 131 19 2147 0 1999 -1 2088
-19 2146 -25 85 -60 139 -133 210 -76 73 -118 100 -201 125 -60 18 -129 19
-2152 18 -1959 -1 -2093 -2 -2145 -18z m3490 -2481 l0 -1340 -1340 0 -1340 0
0 1340 0 1340 1340 0 1340 0 0 -1340z"/>
<path d="M1240 2500 l0 -1260 1260 0 1260 0 0 1260 0 1260 -1260 0 -1260 0 0
-1260z m675 825 c109 -28 195 -106 236 -213 17 -46 20 -73 17 -142 -3 -73 -9
-94 -38 -148 -39 -74 -83 -115 -160 -151 -50 -24 -69 -26 -202 -29 l-148 -4 0
351 0 351 118 0 c73 0 140 -6 177 -15z m763 -57 l3 -68 -126 0 -125 0 0 -70 0
-70 120 0 120 0 0 -70 0 -70 -120 0 -120 0 0 -70 0 -70 125 0 125 0 0 -70 0
-70 -205 0 -205 0 0 350 0 350 203 -2 202 -3 3 -67z m292 -95 c34 -93 73 -203
88 -245 15 -43 29 -78 32 -78 3 0 45 110 94 245 l89 245 84 0 83 0 -13 -32
c-7 -18 -71 -176 -142 -350 l-128 -318 -66 0 -67 0 -133 329 c-73 181 -135
339 -138 350 -5 20 -1 21 75 21 l80 0 62 -167z m-996 -864 c186 -47 220 -326
51 -412 l-46 -23 96 -122 c52 -67 95 -124 95 -127 0 -3 -42 -5 -94 -5 l-93 0
-81 123 -82 122 0 -122 0 -123 -80 0 -80 0 0 350 0 350 136 0 c74 0 155 -5
178 -11z m656 -59 l0 -70 -125 0 -125 0 0 -70 0 -70 120 0 120 0 0 -70 0 -70
-120 0 -120 0 0 -70 0 -70 125 0 125 0 0 -70 0 -70 -200 0 -200 0 0 350 0 350
200 0 200 0 0 -70z m325 -183 c81 -224 91 -245 100 -221 6 16 46 127 91 249
l81 220 82 3 c44 2 81 -1 81 -5 0 -4 -62 -161 -138 -348 l-138 -340 -68 0 -68
0 -139 344 c-76 189 -139 346 -139 348 0 2 37 3 83 1 l82 -3 90 -248z"/>
<path d="M1777 3193 c-4 -3 -7 -98 -7 -210 l0 -203 33 0 c99 0 186 66 205 155
27 126 -39 232 -158 255 -62 12 -65 12 -73 3z"/>
<path d="M1820 2096 l0 -106 44 0 c61 0 92 14 111 49 23 46 19 86 -13 122 -24
27 -37 33 -85 37 l-57 4 0 -106z"/>
</g>
</svg>
